<svg width="55" height="55" viewBox="0 0 55 55" fill="none" xmlns="http://www.w3.org/2000/svg">
<rect width="55" height="55" rx="27.5" fill="#121212"/>
<path fill-rule="evenodd" clip-rule="evenodd" d="M26.8415 43.059C24.9216 43.0792 23.945 41.5027 23.9117 38.3295C23.8834 35.6363 24.6018 32.9353 26.0668 30.2265C26.7724 28.859 27.7598 27.6485 29.0288 26.5952C30.3242 25.5148 31.7963 24.7527 33.445 24.3087C31.5473 23.9019 30.1585 23.7032 29.2786 23.7124C26.469 23.7419 24.0133 24.9998 21.9116 27.4861C22.7185 21.9205 23.1219 18.6653 23.1219 17.7205C23.1219 16.7339 23.0952 16.0539 23.0419 15.6805C23.0152 15.3072 22.8952 14.9072 22.6819 14.4805C22.4685 14.0272 22.1619 13.6939 21.7619 13.4805C20.8285 12.9472 19.3485 12.6272 17.3219 12.5205C17.4285 13.9072 17.4819 15.0005 17.4819 15.8005C17.4819 19.5605 16.9885 24.8672 16.0019 31.7205C15.4419 35.8539 15.1619 38.4272 15.1619 39.4405C15.1619 41.1739 15.5752 42.5339 16.4019 43.5205C17.1657 44.4076 18.5442 45.1352 20.5374 45.7035C21.5203 46.4811 22.6883 46.8628 24.0411 46.8486C25.801 46.8302 27.5006 46.1456 29.1399 44.795C30.7791 43.4444 32 41.6181 32.8025 39.3163C32.8235 41.3161 33.1877 42.9791 33.895 44.3051C34.6286 45.6041 35.9448 46.497 37.8433 46.9838C37.584 45.1464 37.4405 42.9078 37.4128 40.2679C37.3851 37.6281 37.7811 33.437 38.6009 27.6948C39.4473 21.9522 39.8595 18.0277 39.8374 15.9211C39.8152 13.8146 39.4103 12.0721 38.6224 10.6936C37.8346 9.31512 36.4785 8.42264 34.5541 8.01615C34.7808 9.29384 34.9077 11.2126 34.9345 13.7725C34.9611 16.3057 34.8116 19.8408 34.4858 24.3778C34.2971 26.7265 33.9872 28.9566 33.556 31.0679C33.1512 33.1523 32.6518 35.1176 32.0578 36.9639C31.4905 38.81 30.7326 40.2847 29.7841 41.3881C28.8357 42.4914 27.8548 43.0484 26.8415 43.059ZM19.7004 44.8941C19.9626 45.1997 20.2416 45.4695 20.5374 45.7035C20.7014 45.7503 20.8695 45.7959 21.0419 45.8405C20.6685 44.9605 20.4819 43.3205 20.4819 40.9205C20.4819 38.4939 20.9219 34.2672 21.8019 28.2405C21.8393 27.9845 21.8758 27.733 21.9116 27.4861C21.6995 27.7371 21.491 28.0005 21.286 28.2765C19.0506 31.2602 17.9545 34.8185 17.9979 38.9516C18.0253 41.5648 18.5928 43.5457 19.7004 44.8941Z" fill="white"/>
</svg>
